<?xml version="1.0" encoding="UTF-8" standalone="no"?><!DOCTYPE svg PUBLIC "-//W3C//DTD SVG 1.1//EN" "http://www.w3.org/Graphics/SVG/1.1/DTD/svg11.dtd"><svg width="100%" height="100%" viewBox="0 0 500 160" version="1.1" xmlns="http://www.w3.org/2000/svg" xmlns:xlink="http://www.w3.org/1999/xlink" xml:space="preserve" xmlns:serif="http://www.serif.com/" style="fill-rule:evenodd;clip-rule:evenodd;stroke-linejoin:round;stroke-miterlimit:1.41421;"><g><clipPath id="_clip1"><rect x="118.738" y="23.685" width="365.485" height="73.296"/></clipPath><g clip-path="url(#_clip1)"><g><path d="M156.315,24.113c-0.564,0.106 -1.711,0.885 -2.493,1.692c-1.219,1.26 -1.448,1.924 -1.448,4.203c0,2.374 0.195,2.899 1.591,4.273c1.287,1.268 1.994,1.567 3.704,1.567c1.804,0 2.355,-0.263 3.775,-1.804c1.385,-1.504 1.662,-2.184 1.662,-4.084c0,-3.609 -3.35,-6.494 -6.791,-5.847Z" style="fill-rule:nonzero;"/><path d="M191.551,51.163l0,26.949l4.535,-0.143l4.535,-0.142l-0.072,-12.536l-0.071,-12.537l1.33,-1.049c2.886,-2.278 6.159,-1.848 8.345,1.096c0.995,1.342 1.064,2.114 1.176,13.226l0.119,11.8l4.321,0.142c2.375,0.079 4.471,-0.028 4.654,-0.237c0.183,-0.209 0.205,-5.865 0.048,-12.608c-0.281,-12.014 -0.31,-12.28 -1.68,-15.219c-2.523,-5.414 -6.307,-8.215 -11.094,-8.215c-1.425,0 -3.384,0.422 -4.631,0.997c-1.187,0.547 -2.246,0.997 -2.35,0.997c-0.105,0 -0.19,-4.369 -0.19,-9.735l0,-9.735l-4.488,0l-4.487,0l0,26.949Z" style="fill-rule:nonzero;"/><path d="M262.354,51.139l0,26.926l8.453,0l0,-1.567l0,-1.568l1.14,1.065c3.58,3.345 10.276,2.64 14.165,-1.492c3.718,-3.951 5.37,-9.498 5.02,-16.858c-0.259,-5.461 -1.699,-9.421 -4.506,-12.394c-3.301,-3.497 -8.411,-4.524 -12.733,-2.56c-1.187,0.539 -2.27,0.993 -2.374,0.993c-0.105,0 -0.19,-4.369 -0.19,-9.735l0,-9.735l-4.487,0l-4.488,0l0,26.925Zm16.668,-0.414c3.942,1.797 4.262,13.437 0.475,17.225c-1.511,1.51 -4.274,1.589 -6.553,0.186l-1.615,-0.993l0,-7.218l0,-7.218l1.377,-0.965c2.422,-1.695 4.201,-1.982 6.316,-1.017Z" style="fill-rule:nonzero;"/><path d="M454.819,51.163l0,26.949l4.535,-0.143l4.535,-0.142l-0.071,-12.536l-0.071,-12.537l1.33,-1.049c2.886,-2.278 6.159,-1.848 8.344,1.096c0.996,1.342 1.065,2.114 1.177,13.226l0.118,11.8l4.322,0.142c2.374,0.079 4.471,-0.028 4.653,-0.237c0.184,-0.209 0.205,-5.865 0.048,-12.608c-0.28,-12.014 -0.309,-12.28 -1.68,-15.219c-2.523,-5.414 -6.306,-8.215 -11.094,-8.215c-1.425,0 -3.384,0.422 -4.63,0.997c-1.187,0.547 -2.246,0.997 -2.351,0.997c-0.105,0 -0.19,-4.369 -0.19,-9.735l0,-9.735l-4.487,0l-4.488,0l0,26.949Z" style="fill-rule:nonzero;"/><path d="M170.087,38.199l0,3.491l-2.019,0l-2.018,0l0.143,3.869l0.142,3.871l1.876,-0.166l1.876,-0.166l0,9.259c0,12.774 0.884,16.045 4.986,18.442c2.049,1.197 7.028,1.354 10.115,0.319l1.851,-0.62l0,-4.132l0,-4.131l-2.184,0.794c-2.612,0.95 -4.523,0.338 -5.302,-1.696c-0.271,-0.709 -0.491,-4.939 -0.491,-9.45l0,-8.168l3.371,-0.143l3.372,-0.142l0.142,-3.871l0.143,-3.869l-3.514,0l-3.514,0l0,-3.491l0,-3.49l-4.488,0l-4.487,0l0,3.49Z" style="fill-rule:nonzero;"/><path d="M128.678,42.167c-3.847,1.176 -7.825,4.949 -8.861,8.403c-1.539,5.128 -0.052,10.696 3.78,14.158c1.709,1.544 1.926,1.94 1.329,2.432c-1.062,0.877 -1.865,4.114 -1.504,6.061c0.176,0.95 0.781,2.206 1.362,2.825c0.578,0.618 0.96,1.17 0.855,1.235c-0.105,0.066 -1.188,0.687 -2.422,1.392c-2.994,1.708 -4.506,4.378 -4.495,7.939c0.02,7.019 5.777,10.746 15.987,10.351c4.179,-0.163 5.241,-0.393 7.74,-1.677c3.875,-1.991 5.698,-5.207 5.698,-10.051c0,-5.521 -2.327,-7.895 -9.497,-9.687c-4.844,-1.211 -6.458,-2.387 -6.458,-4.701c0,-1.94 0.617,-2.513 3.371,-3.133c6.662,-1.496 11.12,-7.647 10.43,-14.39c-0.262,-2.564 -0.24,-2.618 1.205,-2.92l1.472,-0.309l0,-4.203c0,-2.327 -0.106,-4.202 -0.237,-4.202c-0.131,0 -0.855,0.236 -1.615,0.528c-3.561,1.365 -6.117,1.497 -9.165,0.47c-2.992,-1.007 -6.682,-1.221 -8.975,-0.521Zm7.265,8.213c2.09,2.089 2.252,7.194 0.285,8.977c-1.372,1.244 -4.131,1.509 -5.935,0.571c-2.44,-1.27 -3.175,-5.702 -1.48,-8.931c1.097,-2.089 5.295,-2.453 7.13,-0.617Zm2.185,32.441c1.662,0.864 2.38,3.151 1.504,4.789c-1.499,2.801 -8.766,3.349 -11.429,0.861c-1.902,-1.777 -1.092,-5.1 1.472,-6.042c1.615,-0.593 7.042,-0.341 8.453,0.392Z" style="fill-rule:nonzero;"/><path d="M153.134,59.639l0,17.951l8.975,0l0,-17.951l0,-17.949l-4.488,0l-4.487,0l0,17.949Z" style="fill-rule:nonzero;"/><path d="M226.759,53.277c0.216,11.871 0.621,15.275 2.186,18.329c1.118,2.185 3.771,4.755 5.629,5.454c2.992,1.126 7.562,0.446 10.447,-1.555l1.378,-0.955l0,3.04l8.452,0l0,-17.951l0,-17.949l-4.487,0l-4.488,0l-0.119,12.56l-0.118,12.56l-1.71,1.146c-1.995,1.337 -3.514,1.456 -5.508,0.432c-2.236,-1.148 -2.517,-2.86 -2.517,-15.301l0,-11.397l-4.678,0l-4.677,0l0.21,11.587Z" style="fill-rule:nonzero;"/><path d="M318.057,42.185c-2.517,0.751 -4.898,2.587 -5.887,4.538c-1.925,3.799 -0.899,9.948 2.135,12.796c0.627,0.589 3.158,2.277 5.627,3.753c3.609,2.158 4.516,2.939 4.63,3.989c0.104,0.95 -0.207,1.534 -1.139,2.144c-2.256,1.474 -6.696,0.681 -12.394,-2.212c-0.21,-0.106 -0.317,1.897 -0.238,4.461l0.142,4.654l2.493,0.973c1.794,0.7 3.752,0.987 6.981,1.021c3.942,0.042 4.84,-0.127 7.384,-1.384c3.852,-1.904 5.471,-4.315 5.738,-8.541c0.108,-1.709 -0.073,-3.954 -0.398,-4.938c-0.857,-2.59 -4.2,-5.671 -9.139,-8.423c-4.606,-2.566 -5.512,-3.775 -4.043,-5.396c1.312,-1.448 4.091,-1.223 10.834,0.874c0.754,0.234 0.855,-0.114 0.855,-2.963c0,-1.995 -0.237,-3.421 -0.617,-3.731c-2.046,-1.661 -9.641,-2.607 -12.964,-1.615Z" style="fill-rule:nonzero;"/><path d="M348.401,42.21c-4.047,1.203 -7.508,5.273 -9.05,10.639c-1.31,4.559 -0.846,12.067 1,16.193c1.678,3.751 5.159,7.11 8.572,8.272c3.023,1.03 8.026,1.012 11.729,-0.041l2.897,-0.823l0,-4.226c0,-3.847 -0.077,-4.194 -0.855,-3.869c-6.553,2.742 -11.667,2.072 -13.617,-1.782c-0.529,-1.045 -0.961,-2.359 -0.961,-2.921c0,-0.987 0.285,-1.021 8.643,-1.021l8.642,0l0.303,-2.612c0.687,-5.935 -1.554,-13.078 -4.909,-15.645c-0.941,-0.719 -2.565,-1.608 -3.609,-1.974c-2.115,-0.743 -6.601,-0.84 -8.785,-0.19Zm6.743,7.492c0.541,0.291 1.314,1.295 1.691,2.197c1.325,3.174 1.253,3.229 -4.208,3.229l-4.939,0l0.419,-1.851c0.751,-3.325 4.218,-5.086 7.037,-3.575Z" style="fill-rule:nonzero;"/><path d="M377.154,42.497l-3.11,0.759l0,8.358l2.113,-0.76c1.172,-0.421 3.561,-0.886 5.366,-1.044c2.944,-0.258 3.381,-0.172 4.606,0.902c0.735,0.644 1.495,1.947 1.662,2.849l0.309,1.662l-2.992,-0.339c-9.355,-1.06 -16.505,6.334 -14.565,15.06c1.753,7.883 9.417,10.631 16.56,5.939l1.377,-0.905l0,1.306c0,1.298 0.023,1.306 4.108,1.306l4.107,0l-0.237,-14.104c-0.234,-13.866 -0.26,-14.145 -1.513,-16.573c-1.805,-3.496 -4.613,-4.863 -10.359,-5.041c-2.659,-0.083 -5.518,0.157 -7.432,0.625Zm9.711,19.949c1.686,0.45 1.548,3.652 -0.243,5.646c-2.816,3.135 -7.592,2.09 -7.592,-1.661c0,-3.169 3.751,-5.077 7.835,-3.985Z" style="fill-rule:nonzero;"/><path d="M403.794,59.521l0.119,17.831l8.643,0l-0.095,-12.537l-0.095,-12.536l1.805,-1.112c1.785,-1.1 4.226,-1.207 6.362,-0.277c0.834,0.362 0.892,0.036 0.76,-4.285l-0.142,-4.678l-2.422,-0.143c-1.709,-0.1 -2.994,0.159 -4.369,0.879c-1.947,1.021 -1.947,1.021 -1.947,0.024c0,-0.921 -0.332,-0.997 -4.368,-0.997l-4.369,0l0.118,17.831Z" style="fill-rule:nonzero;"/><path d="M435.017,42.472c-3.33,1.234 -5.94,3.871 -8.014,8.098c-1.832,3.736 -1.863,3.894 -1.863,9.545c0,5.27 0.118,6.004 1.432,8.879c1.692,3.705 5.089,7.071 8.398,8.322c2.873,1.087 8.975,0.835 12.204,-0.503l2.137,-0.885l0,-4.678l0,-4.677l-2.351,1.377c-1.834,1.075 -2.992,1.382 -5.271,1.401c-2.802,0.022 -2.998,-0.059 -4.823,-2.018c-4.403,-4.727 -3.416,-14.455 1.713,-16.876c2.357,-1.113 4.179,-1 7.028,0.436c1.377,0.693 2.522,1.244 2.588,1.244c0.064,0 0.119,-1.9 0.119,-4.179l0,-4.179l-2.137,-0.878c-2.897,-1.189 -8.522,-1.406 -11.16,-0.429Z" style="fill-rule:nonzero;"/></g></g><path d="M92.391,96.244c-10.766,9.133 -24.468,12.867 -38.593,10.436c-18.013,-3.1 -33.196,-17.399 -37.555,-35.368c-1.457,-6.006 -1.476,-15.76 -0.043,-21.798c4.238,-17.857 19.322,-32.206 37.373,-35.551c5.06,-0.938 11.321,-0.936 16.76,0.004c14.67,2.536 27.088,12.028 34.28,26.202c2.824,5.565 3.849,10.068 4.178,18.348c0.256,6.434 0.138,8.173 -0.844,12.422c-1.651,7.143 -5.125,13.992 -9.932,19.685l11.149,11.13l2.791,-2.796l39.894,39.823l-11.199,11.219l-39.894,-39.823l2.791,-2.796l-11.156,-11.137Zm-22.941,-74.386c9.93,2.035 19.145,7.865 24.246,15.339c5.349,7.838 7.384,14.252 7.401,23.33c0.021,11.024 -3.511,19.489 -11.498,27.555c-3.695,3.732 -5.375,4.984 -9.361,6.977c-2.692,1.344 -5.182,2.429 -5.583,2.429c-0.587,0.001 -0.729,-1.445 -0.759,-7.73c-0.037,-8.03 -0.658,-10.831 -2.795,-12.601c-1.309,-1.083 -1.051,-1.657 0.744,-1.661c2.67,-0.005 8.526,-1.99 11.217,-3.802c4.67,-3.146 6.18,-6.706 6.191,-14.586c0.006,-4.64 -0.121,-5.243 -1.821,-8.627c-1.673,-3.331 -1.828,-4.037 -1.836,-8.376c-0.011,-5.537 -0.634,-7.082 -2.857,-7.078c-2.06,0.004 -5.584,1.332 -8.423,3.175c-2.311,1.5 -2.592,1.556 -5.236,1.063c-3.583,-0.668 -10.027,-0.644 -13.767,0.052c-2.942,0.547 -3.042,0.526 -5.988,-1.262c-3.396,-2.061 -6.607,-3.131 -8.535,-2.845c-1.933,0.286 -2.807,3.343 -2.397,8.381c0.252,3.092 0.163,4.124 -0.397,4.589c-0.394,0.327 -1.271,1.848 -1.93,3.346c-1.61,3.659 -1.738,11.277 -0.261,15.513c1.907,5.471 6.807,8.756 15.19,10.185l3.543,0.604l-1.295,1.225c-0.722,0.682 -1.569,1.898 -1.915,2.747c-0.367,0.898 -1.132,1.626 -1.867,1.774c-0.699,0.141 -1.774,0.36 -2.444,0.499c-2.563,0.528 -4.954,-0.684 -7.832,-3.971c-2.966,-3.387 -4.833,-4.63 -6.949,-4.626c-1.902,0.004 -1.694,1.177 0.505,2.838c1.034,0.783 2.409,2.494 3.125,3.889c2.937,5.731 5.337,7.373 10.763,7.362l3.691,-0.007l0.009,4.988c0.007,3.741 -0.159,4.989 -0.664,4.99c-0.368,0 -2.57,-0.913 -4.867,-2.02c-10.003,-4.819 -17.941,-14.548 -20.697,-25.367c-1.283,-5.035 -1.422,-13.727 -0.298,-18.555c1.023,-4.391 3.815,-10.396 6.754,-14.528c8.53,-11.989 24.372,-18.183 38.893,-15.208Z"/></g></svg>